<svg xmlns="http://www.w3.org/2000/svg" version="1.1" xmlns:xlink="http://www.w3.org/1999/xlink" xmlns:svgjs="http://svgjs.dev/svgjs" width="1000" height="623" viewBox="0 0 1000 623"><g transform="matrix(1,0,0,1,-0.6060606060606233,0.2522267206477409)"><svg viewBox="0 0 396 247" data-background-color="#ffffff" preserveAspectRatio="xMidYMid meet" height="623" width="1000" xmlns="http://www.w3.org/2000/svg" xmlns:xlink="http://www.w3.org/1999/xlink"><g id="tight-bounds" transform="matrix(1,0,0,1,0.2400000000000091,-0.09999999999999432)"><svg viewBox="0 0 395.52 247.2" height="247.2" width="395.52"><g><svg></svg></g><g><svg viewBox="0 0 395.52 247.2" height="247.2" width="395.52"><g><g><path xmlns="http://www.w3.org/2000/svg" d="M176.584 191.209h68.822l0-48.33 34.411 0v57.815h-132.129l-18.201-57.815h63.968zM113.938 93.49l-3.387 10.831-32.313 0 17.833-57.815h35.955l17.69 57.815-32.368 0zM80.41 200.694h-78.748v-9.485h49.852l-16.872-48.33 63.85 0zM1 46.506h37.279l19.846 57.815-36.943 0zM189.819 46.506h37.279l-20.183 57.815-37.087 0zM375.55 191.209h18.97v9.485h-53.381l0-57.815h34.411zM245.406 46.506h34.411l0 57.815-34.411 0zM341.139 46.506h34.411l0 57.815h-34.411z" fill="#2257bf" fill-rule="nonzero" stroke="none" stroke-width="1" stroke-linecap="butt" stroke-linejoin="miter" stroke-miterlimit="10" stroke-dasharray="" stroke-dashoffset="0" font-family="none" font-weight="none" font-size="none" text-anchor="none" style="mix-blend-mode: normal" data-fill-palette-color="tertiary"></path></g></g><g transform="matrix(1,0,0,1,2.842170943040401e-14,108.67607074829931)"><svg viewBox="0 0 395.5199999999999 29.84785850340136" height="29.84785850340136" width="395.5199999999999"><g><svg viewBox="0 0 395.5199999999999 29.84785850340136" height="29.84785850340136" width="395.5199999999999"><g><svg viewBox="0 0 395.5199999999999 29.84785850340136" height="29.84785850340136" width="395.5199999999999"><g id="textblocktransform"><svg viewBox="0 0 395.5199999999999 29.84785850340136" height="29.84785850340136" width="395.5199999999999" id="textblock"><g><svg viewBox="0 0 395.5199999999999 29.84785850340136" height="29.84785850340136" width="395.5199999999999"><g transform="matrix(1,0,0,1,0,0)"><svg width="395.5199999999999" viewBox="-0.15000000596046448 -35.75 551.2100219726562 41.599998474121094" height="29.84785850340136" data-palette-color="#2257bf"><path d="M39.65-2.15L50.95-2.15 50.95 0 33.1 0 25.45-24.3 17.85 0 0 0 0-2.15 11.3-2.15-0.15-34.95 8.3-34.95 15.2-14.85 21.4-34.95 29.55-34.95 35.7-14.85 42.65-34.95 51.1-34.95 39.65-2.15ZM63.05-2.15L67.35-2.15 67.35 0 50.95 0 50.95-2.15 55.25-2.15 55.25-34.95 63.05-34.95 63.05-2.15ZM94.35-2.15L99.2-2.15 99.2 0 66.8 0 66.8-2.15 71.65-2.15 71.65-34.95 79.45-34.95 79.45-6.95 94.35-6.95 94.35-2.15ZM122.74-2.15L127.59-2.15 127.59 0 95.19 0 95.19-2.15 100.04-2.15 100.04-34.95 107.84-34.95 107.84-6.95 122.74-6.95 122.74-2.15ZM136.24-2.15L140.54-2.15 140.54 0 124.14 0 124.14-2.15 128.44-2.15 128.44-34.95 136.24-34.95 136.24-2.15ZM177.09-2.15L182.89-2.15 182.89 0 169.74 0 166.49-7.55 151.84-7.55 148.59 0 135.44 0 135.44-2.15 141.19-2.15 155.39-34.95 162.94-34.95 177.09-2.15ZM163.54-14.4L159.19-24.55 154.79-14.4 163.54-14.4ZM213.39 0L213.39-22 203.94-2.9 199.29-2.9 189.89-22 189.89 0 177.24 0 177.24-2.15 182.09-2.15 182.09-34.95 192.64-34.95 201.64-15.75 210.69-34.95 221.19-34.95 221.19-2.15 226.04-2.15 226.04 0 213.39 0ZM225.48-2.15L238.68-2.15 238.68 0 225.48 0 225.48-2.15ZM272.48-2.15L276.78-2.15 276.78 0 264.68 0 264.68-13.75 250.78-13.75 250.78 0 238.68 0 238.68-2.15 242.98-2.15 242.98-34.95 250.78-34.95 250.78-20.35 264.68-20.35 264.68-34.95 272.48-34.95 272.48-2.15ZM276.23-2.15L281.08-2.15 281.08-34.95 306.28-34.95 306.28-28 288.88-28 288.88-20.8 304.53-20.8 304.53-14.15 288.88-14.15 288.88-6.9 306.83-6.9 306.83-2.15 311.68-2.15 311.68 0 276.23 0 276.23-2.15ZM308.93-2.15L313.78-2.15 313.78-34.95 321.08-34.95 338.23-12.45 338.23-34.95 346.03-34.95 346.03-2.15 350.88-2.15 350.88 0 338.23 0 321.58-21.9 321.58 0 308.93 0 308.93-2.15ZM349.77-2.15L354.62-2.15 354.62-34.95 367.87-34.95Q376.02-34.95 379.5-32.2 382.97-29.45 382.97-23.35L382.97-23.35Q382.97-14.95 376.32-12.5L376.32-12.5 383.62-2.15 388.32-2.15 388.32 0 375.57 0 367.82-11.15 362.42-11.15 362.42 0 349.77 0 349.77-2.15ZM368.12-17.9Q372.12-17.9 373.57-19.2 375.02-20.5 375.02-23.33 375.02-26.15 373.52-27.2 372.02-28.25 368.27-28.25L368.27-28.25 362.42-28.25 362.42-17.9 368.12-17.9ZM398.77-2.15L403.07-2.15 403.07 0 386.67 0 386.67-2.15 390.97-2.15 390.97-34.95 398.77-34.95 398.77-2.15ZM442.07-17.7L442.07-17.7Q442.07-12.7 439.69-8.6 437.32-4.5 433.22-2.15L433.22-2.15 444.42-2.15 444.42 0 427.62 0 427.62 5.85 419.82 5.85 419.82 0 403.07 0 403.07-2.15 414.22-2.15Q410.12-4.5 407.74-8.6 405.37-12.7 405.37-17.7L405.37-17.7Q405.37-25.4 410.67-30.58 415.97-35.75 423.72-35.75 431.47-35.75 436.77-30.58 442.07-25.4 442.07-17.7ZM419.82-7.25L419.82-12.1 427.62-12.1 427.62-7.25Q430.52-8.5 432.32-11.33 434.12-14.15 434.12-17.65L434.12-17.65Q434.12-22.35 431.12-25.65 428.12-28.95 423.74-28.95 419.37-28.95 416.37-25.65 413.37-22.35 413.37-17.65L413.37-17.65Q413.37-14.15 415.14-11.33 416.92-8.5 419.82-7.25L419.82-7.25ZM472.07-2.15L481.97-2.15 481.97 0 444.42 0 444.42-2.15 454.37-2.15Q448.22-6.25 448.22-15.4L448.22-15.4 448.22-34.95 456.02-34.95 456.02-15.65Q456.02-11.45 457.97-9.03 459.92-6.6 463.22-6.6 466.52-6.6 468.44-9.03 470.37-11.45 470.37-15.65L470.37-15.65 470.37-34.95 478.17-34.95 478.17-15.4Q478.17-6.25 472.07-2.15L472.07-2.15ZM481.41-2.15L486.26-2.15 486.26-34.95 511.46-34.95 511.46-28 494.06-28 494.06-20.8 509.71-20.8 509.71-14.15 494.06-14.15 494.06-6.9 512.01-6.9 512.01-2.15 516.86-2.15 516.86 0 481.41 0 481.41-2.15ZM546.21-2.15L551.06-2.15 551.06 0 512.11 0 512.11-2.15 516.96-2.15 516.96-5.35 535.26-28.2 517.56-28.2 517.56-34.95 545.91-34.95 545.91-29.55 527.66-6.8 546.21-6.8 546.21-2.15Z" opacity="1" transform="matrix(1,0,0,1,0,0)" fill="#2257bf" class="undefined-text-0" data-fill-palette-color="primary" id="text-0"></path></svg></g></svg></g></svg></g></svg></g><g></g></svg></g></svg></g></svg></g><defs></defs></svg><rect width="395.52" height="247.2" fill="none" stroke="none" visibility="hidden"></rect></g></svg></g></svg>